# xmcd CD database file
# Generated: Sat Jan 5 18:03:50 2002 by KSCD
# 
# Track frame offsets:
#       150
#       13917
#       23147
#       38002
#       48612
#       62342
#       71250
#       83832
#       96690
#       102492
#       110237
#       121042
#       128405
#       139010
#
# Disc length: 2037 seconds
#
# Revision: 1
# Processed by: cddbd v1.4PL0 Copyright (c) Steve Scherf et al.
# Submitted via: Kscd 1.3.2
#
DISCID=bb07f30e
DTITLE=Freeze - One False Move
DYEAR=1900
DGENRE=
TTITLE0=New Poison
TTITLE1=In Their Dreams
TTITLE2=Contract High
TTITLE3=The Band's Waiting
TTITLE4=Wired to Lose
TTITLE5=Professor Redeye
TTITLE6=Shedding Season
TTITLE7=Now Serving
TTITLE8=Alien Heads
TTITLE9=Last Letter Home
TTITLE10=Makes Me Nervous
TTITLE11=Weapon A
TTITLE12=Kiss and Kill
TTITLE13=Mental Defective
EXTD=Doctor Strange Records
EXTT0=
EXTT1=
EXTT2=
EXTT3=
EXTT4=
EXTT5=
EXTT6=
EXTT7=
EXTT8=
EXTT9=
EXTT10=
EXTT11=
EXTT12=
EXTT13=
PLAYORDER=
